<svg width="376" height="813" viewBox="0 0 376 813" fill="none" xmlns="http://www.w3.org/2000/svg">
<g clip-path="url(#clip0)">
<rect width="376" height="813" fill="#016938"/>
<path d="M341.323 570.028C303.077 551.936 273.022 520.582 257.769 482.864C242.516 445.146 243.314 404.154 259.989 368.905L322.861 236L418.999 281.479L356.126 414.384C350.568 426.133 350.302 439.797 355.386 452.37C360.471 464.943 370.489 475.394 383.238 481.425C395.986 487.456 410.421 488.572 423.366 484.528C436.31 480.485 446.705 471.612 452.264 459.863L515.136 326.958L611.273 372.436L548.401 505.341C531.726 540.59 500.541 567.208 461.707 579.339C422.872 591.47 379.569 588.121 341.323 570.028Z" fill="#FFBD14"/>
<g opacity="0.5">
<path opacity="0.5" d="M341.323 570.028C303.077 551.936 273.022 520.582 257.769 482.864C242.516 445.146 243.314 404.154 259.989 368.905L322.861 236L418.999 281.479L356.126 414.384C350.568 426.133 350.302 439.797 355.386 452.37C360.471 464.943 370.489 475.394 383.238 481.425C395.986 487.456 410.421 488.572 423.366 484.528C436.31 480.485 446.705 471.612 452.264 459.863L515.136 326.958L611.273 372.436L548.401 505.341C531.726 540.59 500.541 567.208 461.707 579.339C422.872 591.47 379.569 588.121 341.323 570.028Z" fill="#FFBD14"/>
</g>
<path d="M399.299 292.027C358.376 272.669 326.731 238.034 311.325 195.742C295.919 153.451 298.015 106.967 317.15 66.5173L389.3 -86.0001L492.166 -37.3383L420.016 115.179C413.637 128.662 412.939 144.157 418.074 158.254C423.21 172.351 433.758 183.896 447.399 190.349C461.04 196.802 476.656 197.634 490.811 192.663C504.967 187.692 516.503 177.324 522.882 163.841L595.032 11.3235L697.897 59.9853L625.747 212.503C606.612 252.953 572.004 284.056 529.537 298.97C487.069 313.883 440.221 311.386 399.299 292.027Z" fill="#1EF2FF"/>
<g opacity="0.5">
<path opacity="0.5" d="M399.299 292.027C358.376 272.669 326.731 238.034 311.325 195.742C295.919 153.451 298.015 106.967 317.15 66.5173L389.3 -86.0001L492.166 -37.3383L420.016 115.179C413.637 128.662 412.939 144.157 418.074 158.254C423.21 172.351 433.758 183.896 447.399 190.349C461.04 196.802 476.656 197.634 490.811 192.663C504.967 187.692 516.503 177.324 522.882 163.841L595.032 11.3235L697.897 59.9853L625.747 212.503C606.612 252.953 572.004 284.056 529.537 298.97C487.069 313.883 440.221 311.386 399.299 292.027Z" fill="#1EF2FF"/>
</g>
<g opacity="0.2">
<path d="M369.024 423.856C336.131 408.296 310.695 380.457 298.312 346.463C285.929 312.47 287.613 275.106 302.994 242.593L360.988 120L443.67 159.114L385.677 281.707C380.55 292.545 379.988 304.999 384.116 316.33C388.244 327.661 396.722 336.941 407.687 342.128C418.651 347.315 431.203 347.984 442.582 343.988C453.96 339.992 463.233 331.659 468.36 320.821L526.353 198.228L609.036 237.342L551.043 359.935C535.662 392.448 507.844 417.449 473.709 429.436C439.574 441.424 401.918 439.417 369.024 423.856Z" fill="#1EF2FF"/>
<g opacity="0.5">
<path opacity="0.5" d="M369.024 423.856C336.131 408.296 310.695 380.457 298.312 346.463C285.929 312.47 287.613 275.106 302.994 242.593L360.988 120L443.67 159.114L385.677 281.707C380.55 292.545 379.988 304.999 384.116 316.33C388.244 327.661 396.722 336.941 407.687 342.128C418.651 347.315 431.203 347.984 442.582 343.988C453.96 339.992 463.233 331.659 468.36 320.821L526.353 198.228L609.036 237.342L551.043 359.935C535.662 392.448 507.844 417.449 473.709 429.436C439.574 441.424 401.918 439.417 369.024 423.856Z" fill="#1EF2FF"/>
</g>
</g>
<g opacity="0.5">
<path opacity="0.5" d="M433.159 664.838C411.634 654.655 394.99 636.438 386.886 614.193C378.783 591.948 379.885 567.499 389.95 546.222L427.9 466L482.006 491.595L444.056 571.818C440.701 578.91 440.334 587.06 443.035 594.475C445.736 601.89 451.284 607.962 458.459 611.356C465.634 614.75 473.848 615.188 481.294 612.573C488.739 609.959 494.807 604.505 498.162 597.413L536.112 517.191L590.218 542.786L552.268 623.009C542.203 644.285 524 660.645 501.663 668.489C479.325 676.334 454.684 675.02 433.159 664.838Z" fill="#FFBD14"/>
</g>
</g>
<defs>
<clipPath id="clip0">
<rect width="376" height="813" fill="white"/>
</clipPath>
</defs>
</svg>
